<svg xmlns="http://www.w3.org/2000/svg" xmlns:xlink="http://www.w3.org/1999/xlink" width="315" height="58.31" viewBox="0 0 315 58.31">
  <defs>
    <linearGradient id="linear-gradient" y1="0.5" x2="1.095" y2="0.5" gradientUnits="objectBoundingBox">
      <stop offset="0.05" stop-color="#eed688"/>
      <stop offset="0.25" stop-color="#fffbcc"/>
      <stop offset="0.53" stop-color="#fffcd4"/>
      <stop offset="0.67" stop-color="#fffcd4"/>
      <stop offset="0.87" stop-color="#eed688"/>
      <stop offset="0.95" stop-color="#fffbcc"/>
    </linearGradient>
    <linearGradient id="linear-gradient-2" x1="0.5" y1="1" x2="0.5" gradientUnits="objectBoundingBox">
      <stop offset="0" stop-color="#fffcd4"/>
      <stop offset="0.39" stop-color="#fffcd4"/>
      <stop offset="0.58" stop-color="#eed6a4"/>
      <stop offset="0.77" stop-color="#fffcd4"/>
      <stop offset="0.95" stop-color="#fffbcc"/>
    </linearGradient>
  </defs>
  <g id="Logo" transform="translate(0.03)">
    <g id="CW_Logo_Tagline_-_WHITE" data-name="CW Logo + Tagline - WHITE" transform="translate(-0.03)">
      <path id="Path_4849" data-name="Path 4849" d="M29.22,25.755h7.254l-.134,1.207a18.833,18.833,0,0,1-4.795,10.944c-3.26,3.563-7.7,5.37-13.189,5.37a17.373,17.373,0,0,1-12.018-4.4C2.112,35.048-.03,29.121-.03,21.253c0-5.987,1.6-10.981,4.762-14.849C8.19,2.157,13,0,19.036,0c5.15,0,9.228,1.416,12.121,4.211h0a14.944,14.944,0,0,1,4.815,9.553l.1,1.184H28.869l-.193-.845A9.726,9.726,0,0,0,25.6,8.711,9.755,9.755,0,0,0,19.1,6.77a10.355,10.355,0,0,0-8.32,3.674C8.65,12.917,7.564,16.869,7.564,22.157c0,4.314.987,7.837,2.932,10.477,1.9,2.568,4.676,3.823,8.5,3.823a8.753,8.753,0,0,0,7.834-4.006,16.223,16.223,0,0,0,2.211-5.825Zm10-17.1H46.25V1.062H39.217Zm0,33.588H46.25V11.763H39.217Zm28.6-22.732a8.71,8.71,0,0,1,.661,3.722v19.01H75.51V22.913a15.859,15.859,0,0,0-1.284-7.1c-1.61-3.2-4.688-4.823-9.149-4.823a12.531,12.531,0,0,0-5.491,1.2,11.973,11.973,0,0,0-2.715,1.841v-2.4H50.156V42.239H57.11V26.258a18.635,18.635,0,0,1,.329-4.036,6.686,6.686,0,0,1,4.275-4.46,8.418,8.418,0,0,1,2.46-.295A3.592,3.592,0,0,1,67.815,19.509ZM81.6,39.049c-2.632-2.773-3.966-6.664-3.966-11.569,0-4.813,1.335-8.8,3.959-11.836a13.268,13.268,0,0,1,10.477-4.651,13.963,13.963,0,0,1,6.32,1.541h0a11.9,11.9,0,0,1,4.725,4.053,13.869,13.869,0,0,1,2.063,5.436,33.648,33.648,0,0,1,.438,6.443v1.088H85a10.486,10.486,0,0,0,1.754,5.239c1.057,1.462,2.691,2.172,4.994,2.172a6.457,6.457,0,0,0,5.116-2.117,7.4,7.4,0,0,0,1.517-2.9l.218-.8h6.757l-.145,1.215a10.988,10.988,0,0,1-1.359,3.884,13.71,13.71,0,0,1-2.547,3.416,12.1,12.1,0,0,1-5.85,3.136,17.262,17.262,0,0,1-4.121.453A12.96,12.96,0,0,1,81.6,39.049Zm3.537-15.47H98.39a10.019,10.019,0,0,0-1.058-3.342c-1.1-1.952-2.92-2.9-5.557-2.9a6.085,6.085,0,0,0-4.681,2.031A7.545,7.545,0,0,0,85.139,23.579Zm30.172,2.494c0-3.336.632-5.626,1.877-6.8a5.915,5.915,0,0,1,4.179-1.8c1.567,0,2.584.466,3.1,1.406a8.438,8.438,0,0,1,.568,3.72V42.241h7.034V24.612c0-2.61.566-4.459,1.684-5.5a5.778,5.778,0,0,1,4.109-1.6,4.531,4.531,0,0,1,2.814.845c.653.489.984,1.509.984,3.033V42.241h7.14V22.223a14.573,14.573,0,0,0-1.233-6.488c-1.574-3.147-4.528-4.742-8.779-4.742a11.574,11.574,0,0,0-5.328,1.221,10.845,10.845,0,0,0-3.121,2.441,8.34,8.34,0,0,0-1.568-1.746,9.524,9.524,0,0,0-6.152-1.918,10.376,10.376,0,0,0-5.982,1.813,11.6,11.6,0,0,0-1.374,1.13V11.622h-6.9V42.232h6.954ZM170.065,22.1a3.187,3.187,0,0,0,.205-1.369,2.769,2.769,0,0,0-1.233-2.642,8.345,8.345,0,0,0-4.384-.936c-2.124,0-3.619.54-4.439,1.6a5.768,5.768,0,0,0-.924,2.8l-.115.958h-6.54l.028-1.114c.1-3.885,1.415-6.653,3.915-8.229a15.087,15.087,0,0,1,8.178-2.231,16.571,16.571,0,0,1,8.709,2.072,7.541,7.541,0,0,1,3.623,6.876V36.27a1.312,1.312,0,0,0,.08.514,3.8,3.8,0,0,0,1.034.008q.361-.035.768-.108l1.277-.225v5.649l-.789.226a13.919,13.919,0,0,1-1.849.429,13.25,13.25,0,0,1-1.74.09,4.981,4.981,0,0,1-4.5-2.26,5.484,5.484,0,0,1-.492-1.009,15.239,15.239,0,0,1-3.112,2.082A14.129,14.129,0,0,1,161.24,43.2a10.063,10.063,0,0,1-7.217-2.7,9.076,9.076,0,0,1-2.845-6.793,8.8,8.8,0,0,1,2.838-6.942,12.875,12.875,0,0,1,7.062-2.942l7.62-.954C169.652,22.743,169.935,22.369,170.065,22.1Zm.078,6.314c-.278.1-.573.189-.881.273a20.134,20.134,0,0,1-2.858.562l-2.876.37a10.107,10.107,0,0,0-3.508.954,3.147,3.147,0,0,0-1.666,3.028,2.83,2.83,0,0,0,1.1,2.4,4.524,4.524,0,0,0,2.912.959,9.888,9.888,0,0,0,4.4-1.054,5.513,5.513,0,0,0,3.376-5.361Zm26.618,13.831,8.227-29.383,8.178,29.383h7.214L231.2,1.062h-8.066L216.548,29.5,208.639,1.062h-7.365L193.38,29.44,186.8,1.062h-8.012l10.765,41.179ZM253.29,14.776c2.72,2.642,4.1,6.528,4.1,11.549a19.707,19.707,0,0,1-3.535,12c-2.421,3.266-6.184,4.922-11.183,4.922a12.7,12.7,0,0,1-10.076-4.342c-2.451-2.835-3.693-6.658-3.693-11.362,0-5.018,1.3-9.092,3.871-12.111a13.177,13.177,0,0,1,10.53-4.622,13.859,13.859,0,0,1,9.986,3.968Zm-3.066,11.683a13.387,13.387,0,0,0-1.144-5.981c-1.138-2.238-3.071-3.328-5.908-3.328a5.7,5.7,0,0,0-5.364,2.806,14.623,14.623,0,0,0-1.819,7.511,12.593,12.593,0,0,0,1.793,6.965c1.108,1.7,2.854,2.529,5.341,2.529,2.7,0,4.492-.975,5.468-2.979a17.1,17.1,0,0,0,1.633-7.523ZM274,11.022c-.255-.021-.434-.03-.541-.03a8.181,8.181,0,0,0-5.764,2.354q-.489.462-.9.9V11.63h-6.715V42.239h6.954V24.8a6.985,6.985,0,0,1,1.686-4.653,5.741,5.741,0,0,1,4.715-1.933c.254,0,.489.008.7.024a6.07,6.07,0,0,1,.664.09l1.287.241V11.232l-.975-.1q-.786-.079-1.111-.107Zm3.97,31.219h6.953V1.062h-6.953Zm30.528,0V40.265a10.049,10.049,0,0,1-2.356,1.7,12.378,12.378,0,0,1-5.708,1.288,11.623,11.623,0,0,1-9.022-4.371c-2.475-2.856-3.731-6.677-3.731-11.346a19.564,19.564,0,0,1,3.355-11.387,11.408,11.408,0,0,1,9.925-5.021,11.163,11.163,0,0,1,6.027,1.548,8.756,8.756,0,0,1,1.217.938V.93h6.768V42.241Zm-.1-15.292c0-3.312-.651-5.76-1.935-7.276a5.741,5.741,0,0,0-4.586-2.2,6.04,6.04,0,0,0-4.98,2.362c-1.321,1.633-1.99,4.137-1.99,7.441a13.149,13.149,0,0,0,1.763,7.07h0c1.082,1.73,2.8,2.568,5.26,2.568a5.426,5.426,0,0,0,4.556-2.416c1.266-1.7,1.909-4.242,1.909-7.545Z" transform="translate(0.03)" fill="url(#linear-gradient)"/>
      <path id="Path_4850" data-name="Path 4850" d="M38.619,484.671a4.183,4.183,0,0,0-3.658,2.129,4.33,4.33,0,0,0-.566,2.168,4.062,4.062,0,0,0,1.242,2.99,4.159,4.159,0,0,0,3.048,1.233,4.235,4.235,0,0,0,4.262-4.265A4.1,4.1,0,0,0,41.7,485.9,4.2,4.2,0,0,0,38.619,484.671Zm3.038,6.023a3.273,3.273,0,0,1-1.254,1.253,3.465,3.465,0,0,1-1.746.458,3.414,3.414,0,0,1-3.42-3.439,3.517,3.517,0,0,1,.453-1.773,3.418,3.418,0,0,1,4.7-1.264,3.37,3.37,0,0,1,1.268,1.251,3.428,3.428,0,0,1,.451,1.746A3.514,3.514,0,0,1,41.657,490.694Zm18.805-5.819h.811v4.9a5.958,5.958,0,0,1-.213,1.757,2.387,2.387,0,0,1-.849,1.167,2.435,2.435,0,0,1-1.541.5,2.954,2.954,0,0,1-1.682-.469,2.26,2.26,0,0,1-.94-1.243,6.626,6.626,0,0,1-.149-1.71v-4.9h.811v4.9a10.332,10.332,0,0,0,.035,1.093,1.811,1.811,0,0,0,.281.8,1.652,1.652,0,0,0,.679.54,2.118,2.118,0,0,0,.924.219,1.822,1.822,0,0,0,.772-.172,1.714,1.714,0,0,0,.616-.475,1.937,1.937,0,0,0,.365-.733,6.063,6.063,0,0,0,.082-1.27Zm18.025,4.085a1.94,1.94,0,0,0,.891-.76,2.166,2.166,0,0,0,.308-1.165,2.022,2.022,0,0,0-.453-1.335,2.087,2.087,0,0,0-1.175-.711,9.831,9.831,0,0,0-1.831-.11H74.619v8.115h.811v-3.771h.458l2.919,3.769h1l-2.923-3.769a4.088,4.088,0,0,0,1.6-.263Zm-3.062-.532v-2.759h1.431a3.515,3.515,0,0,1,1.194.144,1.233,1.233,0,0,1,.58.478,1.316,1.316,0,0,1,.221.742,1.382,1.382,0,0,1-.218.759,1.25,1.25,0,0,1-.608.493,3.466,3.466,0,0,1-1.2.155Zm40.241-3.553h.822l-2.332,8.115h-.146L111.6,486.85l-2.455,6.14H109l-2.3-8.115h.833l1.658,5.848,2.327-5.848h.168l2.3,5.848Zm17.5-.205a4.183,4.183,0,0,0-3.658,2.129,4.331,4.331,0,0,0-.566,2.168,4.064,4.064,0,0,0,1.243,2.99,4.158,4.158,0,0,0,3.047,1.233,4.237,4.237,0,0,0,4.263-4.265,4.094,4.094,0,0,0-1.243-3.029,4.194,4.194,0,0,0-3.081-1.225Zm3.039,6.023a3.287,3.287,0,0,1-1.254,1.253,3.468,3.468,0,0,1-1.746.458,3.412,3.412,0,0,1-3.425-3.438,3.517,3.517,0,0,1,.453-1.773,3.417,3.417,0,0,1,4.7-1.264,3.372,3.372,0,0,1,1.268,1.251,3.437,3.437,0,0,1,.45,1.746,3.523,3.523,0,0,1-.449,1.768Zm18.133-1.734a1.94,1.94,0,0,0,.891-.76,2.165,2.165,0,0,0,.308-1.165,2.021,2.021,0,0,0-.452-1.335,2.09,2.09,0,0,0-1.175-.711,9.85,9.85,0,0,0-1.831-.11h-1.617v8.115h.811v-3.77h.458l2.918,3.769h1l-2.915-3.769a4.083,4.083,0,0,0,1.6-.263Zm-3.062-.532v-2.758H152.7a3.526,3.526,0,0,1,1.194.144,1.233,1.233,0,0,1,.58.478,1.316,1.316,0,0,1,.221.742,1.382,1.382,0,0,1-.218.759,1.25,1.25,0,0,1-.608.493,3.466,3.466,0,0,1-1.2.155Zm18.112,3.779h3.123v.784h-3.934v-8.115h.811Zm20.03-7.039a8.577,8.577,0,0,0-2.642-.293h-1.684v8.115h2.582a5.176,5.176,0,0,0,2.362-.442,3.372,3.372,0,0,0,1.368-1.368,4.265,4.265,0,0,0,.527-2.146,4.361,4.361,0,0,0-.665-2.433,3.527,3.527,0,0,0-1.848-1.432Zm1.171,5.776a2.7,2.7,0,0,1-1.438,1.071,8.916,8.916,0,0,1-2.334.205h-.938v-6.55h.573a9.569,9.569,0,0,1,2.51.232,2.857,2.857,0,0,1,1.584,1.141,3.482,3.482,0,0,1,.568,2.006A3.359,3.359,0,0,1,190.586,490.942Zm32.509-6.272a4.183,4.183,0,0,0-3.658,2.129,4.331,4.331,0,0,0-.566,2.168,4.062,4.062,0,0,0,1.242,2.99,4.164,4.164,0,0,0,3.048,1.233,4.235,4.235,0,0,0,4.262-4.265,4.1,4.1,0,0,0-1.242-3.029,4.205,4.205,0,0,0-3.09-1.226Zm3.031,6.023a3.287,3.287,0,0,1-1.255,1.253,3.464,3.464,0,0,1-1.746.458,3.412,3.412,0,0,1-3.42-3.439,3.517,3.517,0,0,1,.453-1.773,3.417,3.417,0,0,1,4.7-1.264,3.372,3.372,0,0,1,1.266,1.251,3.437,3.437,0,0,1,.45,1.746,3.523,3.523,0,0,1-.45,1.768Zm14.215-5.819h4.069v.794h-3.255v2.543h3.255v.8h-3.255v3.983h-.81Zm31.2,0h4.066v.794h-3.255v2.543h3.255v.8h-3.255v3.983h-.81Zm16.662,0h.81v8.115h-.81Zm14.78,7.332h3.123v.784h-3.934v-8.115h.811Zm23.327-7.332,1.168,8.115h-.8l-.8-5.8-2.869,5.8h-.205l-2.9-5.848-.8,5.849h-.784l1.163-8.115h.132l3.3,6.659,3.267-6.659Zm17.975,6.135a2.07,2.07,0,0,1-.671,1.534,2.26,2.26,0,0,1-1.63.651,2.4,2.4,0,0,1-1.34-.394,3.6,3.6,0,0,1-1.109-1.322l.69-.411q.734,1.339,1.685,1.339a1.6,1.6,0,0,0,.766-.19,1.341,1.341,0,0,0,.547-.514,1.315,1.315,0,0,0,.188-.678,1.376,1.376,0,0,0-.276-.8,6.645,6.645,0,0,0-1.39-1.3,7.206,7.206,0,0,1-1.263-1.108,2.025,2.025,0,0,1-.43-1.242,1.88,1.88,0,0,1,.254-.966,1.8,1.8,0,0,1,.719-.686,2.054,2.054,0,0,1,1-.252,2.128,2.128,0,0,1,1.073.285A3.665,3.665,0,0,1,344.157,486l-.661.5a3.209,3.209,0,0,0-.781-.8,1.342,1.342,0,0,0-.7-.193,1.109,1.109,0,0,0-.8.3.972.972,0,0,0-.308.733,1.265,1.265,0,0,0,.11.514,1.908,1.908,0,0,0,.4.54q.159.154,1.048.81a5.9,5.9,0,0,1,1.445,1.386,2.225,2.225,0,0,1,.383,1.22Z" transform="translate(-30.859 -434.886)" fill="url(#linear-gradient-2)"/>
    </g>
  </g>
</svg>
